Coordinates
version=1
nRows=26
nColumns=24
inDegrees=yes

Units are S.I. units (second, meters, Newtons, ...)
Angles are in degrees.

endheader
time	pelvis_tilt	pelvis_list	pelvis_rotation	pelvis_tx	pelvis_ty	pelvis_tz	hip_flexion_r	hip_adduction_r	hip_rotation_r	knee_angle_r	ankle_angle_r	subtalar_angle_r	mtp_angle_r	hip_flexion_l	hip_adduction_l	hip_rotation_l	knee_angle_l	ankle_angle_l	subtalar_angle_l	mtp_angle_l	lumbar_extension	lumbar_bending	lumbar_rotation
      0.85033333	      6.40166905	     -3.11131980	     10.51838040	     -0.49422084	      1.04373124	      0.34482370	      1.88633682	      9.64157194	     -4.02718898	    -12.01857497	      2.00424706	    -12.93189368	      4.73754627	     11.66814498	     -7.23175080	      1.43344006	    -65.62269925	     -2.26915497	     -5.44645966	      0.32702886	     -7.89609799	      0.08363774	     -3.33708313
      0.85450000	      6.38438372	     -2.96458706	     10.46809885	     -0.48944484	      1.04448661	      0.34514555	      1.44245323	      9.54107086	     -4.04035544	    -11.74133750	      2.14598600	    -12.70430394	      4.73234893	     12.12597912	     -6.97826179	      1.41102046	    -65.18752051	     -1.53504775	     -5.38604188	      0.22636039	     -7.96729718	     -0.10143643	     -3.19973581
      0.85866667	      6.36403625	     -2.82641328	     10.39946638	     -0.48466869	      1.04518937	      0.34547654	      1.00539943	      9.44772630	     -4.04123805	    -11.46957635	      2.29671033	    -12.46361374	      4.72528283	     12.57125799	     -6.73560316	      1.36913541	    -64.70473572	     -0.84451331	     -5.33001417	      0.11079843	     -8.02585393	     -0.27116222	     -3.03335034
      0.86283333	      6.33269566	     -2.68627991	     10.31132705	     -0.47990410	      1.04587572	      0.34582179	      0.58109219	      9.34983157	     -4.01541541	    -11.19981777	      2.43081960	    -12.24648501	      4.71745673	     13.00769566	     -6.48822225	      1.31318874	    -64.16272187	     -0.20393957	     -5.28873394	      0.01577842	     -8.07629792	     -0.45554221	     -2.86797749
      0.86700000	      6.28543474	     -2.55152506	     10.21205797	     -0.47511162	      1.04649945	      0.34617197	      0.16945626	      9.25568478	     -3.97629952	    -10.91904216	      2.51749173	    -12.09255208	      4.71385130	     13.44463459	     -6.24652578	      1.23682224	    -63.57171958	      0.36984024	     -5.34729293	     -0.01773555	     -8.09057610	     -0.64011801	     -2.76966239
      0.87116667	      6.29148466	     -2.41839995	     10.08502110	     -0.47036710	      1.04716659	      0.34652675	     -0.28806703	      9.16482255	     -3.93389275	    -10.66394202	      2.69836543	    -11.78017282	      4.69345469	     13.80040724	     -6.01801778	      1.14686891	    -62.92355438	      0.95460925	     -5.26075056	     -0.17326034	     -8.18511957	     -0.78077380	     -2.42716977
      0.87533333	      6.24304967	     -2.28852719	      9.95175345	     -0.46558517	      1.04772442	      0.34690844	     -0.69606167	      9.07448519	     -3.84665586	    -10.38673796	      2.79688672	    -11.64302098	      4.68855178	     14.20208348	     -5.78938493	      1.03837275	    -62.22919070	      1.44564204	     -5.28962845	     -0.20278993	     -8.19849491	     -0.97662123	     -2.33692530
      0.87950000	      6.23867999	     -2.14919150	      9.78651994	     -0.46085160	      1.04832628	      0.34730572	     -1.14142932	      8.97516625	     -3.72909461	    -10.13546464	      2.93933896	    -11.43775845	      4.67739315	     14.52517278	     -5.56074579	      0.90999486	    -61.46744051	      1.94096332	     -5.22076824	     -0.25910282	     -8.28905106	     -1.12825871	     -2.07186654
      0.88366667	      6.22739708	     -2.03207006	      9.62303691	     -0.45607990	      1.04886697	      0.34769739	     -1.58667841	      8.89777091	     -3.62012389	     -9.86169621	      3.08636881	    -11.21646487	      4.65616534	     14.84824747	     -5.36053408	      0.77471190	    -60.66773252	      2.36366755	     -5.21832553	     -0.34146560	     -8.32972133	     -1.28218125	     -1.74897404
      0.88783333	      6.18509477	     -1.90131069	      9.42655847	     -0.45132825	      1.04934668	      0.34812276	     -1.98242239	      8.79646360	     -3.47667929	     -9.62441256	      3.18748572	    -11.05933981	      4.64239193	     15.17650161	     -5.14238320	      0.61123290	    -59.80822549	      2.76540436	     -5.25192464	     -0.38269469	     -8.36326296	     -1.44946114	     -1.56662418
      0.89200000	      6.18143131	     -1.78851316	      9.23248304	     -0.44656699	      1.04982498	      0.34854840	     -2.43145013	      8.72002086	     -3.32891816	     -9.35490296	      3.32959897	    -10.86246678	      4.61415676	     15.45171554	     -4.95871627	      0.44360097	    -58.90478397	      3.11781415	     -5.26476444	     -0.45465028	     -8.41063321	     -1.59471190	     -1.20476111
      0.89616667	      6.16149515	     -1.67388473	      9.01515510	     -0.44180947	      1.05026816	      0.34899230	     -2.85328251	      8.63498870	     -3.15436336	     -9.10574097	      3.44482725	    -10.69561858	      4.58200915	     15.71971123	     -4.77421546	      0.25501033	    -57.94464462	      3.43790452	     -5.30800120	     -0.52090372	     -8.45002110	     -1.74294233	     -0.91315694
      0.90033333	      6.12564072	     -1.56247457	      8.78329323	     -0.43705091	      1.05062822	      0.34945568	     -3.24995550	      8.54717967	     -2.96975137	     -8.87215199	      3.56891357	    -10.55097238	      4.55271491	     15.98785998	     -4.59835825	      0.04560534	    -56.93984018	      3.72042069	     -5.35991177	     -0.57370673	     -8.46185893	     -1.89305014	     -0.63979026
      0.90450000	      6.10671595	     -1.46134600	      8.54291470	     -0.43230505	      1.05099012	      0.34991605	     -3.66496800	      8.46934050	     -2.76083668	     -8.63101868	      3.66878116	    -10.38729864	      4.51086082	     16.21967847	     -4.43505221	     -0.15973422	    -55.88605726	      3.97459478	     -5.43538903	     -0.63851228	     -8.51088070	     -2.02532351	     -0.29595061
      0.90866667	      6.07560103	     -1.36775012	      8.29386123	     -0.42754747	      1.05128381	      0.35038796	     -4.06022048	      8.39459357	     -2.54986151	     -8.40199225	      3.78938788	    -10.25455589	      4.46796762	     16.44806179	     -4.28635186	     -0.38395453	    -54.78703625	      4.18256691	     -5.51501727	     -0.69865969	     -8.51778358	     -2.15101269	      0.01525265
      0.91283333	      6.04009703	     -1.27192528	      8.03125385	     -0.42278447	      1.05153860	      0.35087030	     -4.44741673	      8.31202306	     -2.32120855	     -8.18024755	      3.90168978	    -10.11649419	      4.42035956	     16.65672779	     -4.13677712	     -0.61782176	    -53.63419951	      4.35874159	     -5.62012728	     -0.76111116	     -8.53309048	     -2.28195933	      0.33947197
      0.91700000	      6.01087738	     -1.17785547	      7.76098033	     -0.41800623	      1.05177695	      0.35135465	     -4.83940704	      8.22832489	     -2.08757720	     -7.96196347	      4.02840328	     -9.99625277	      4.37546632	     16.83574241	     -3.99576677	     -0.86713475	    -52.42905465	      4.48666652	     -5.74285734	     -0.81929894	     -8.53754033	     -2.41001110	      0.65246075
      0.92116667	      5.96642828	     -1.09718354	      7.48689105	     -0.41323670	      1.05193597	      0.35183772	     -5.20813447	      8.15303305	     -1.84452161	     -7.75138718	      4.14660344	     -9.87173477	      4.32526917	     17.01852408	     -3.86664587	     -1.11232761	    -51.18628680	      4.58858641	     -5.88624635	     -0.88223263	     -8.52749086	     -2.52264990	      0.98635729
      0.92533333	      5.92007857	     -1.02722160	      7.20791371	     -0.40845862	      1.05204663	      0.35231743	     -5.56937128	      8.08472715	     -1.59681596	     -7.54886968	      4.27157305	     -9.76179282	      4.27633432	     17.18647149	     -3.75301038	     -1.36638400	    -49.90210110	      4.66039716	     -6.04092853	     -0.94422342	     -8.51129001	     -2.62416906	      1.30245673
      0.92950000	      5.86711859	     -0.96333045	      6.92555545	     -0.40366348	      1.05212379	      0.35278980	     -5.92201772	      8.01825539	     -1.34095180	     -7.34844779	      4.39268511	     -9.64859974	      4.22387204	     17.33945460	     -3.64373006	     -1.61766956	    -48.56828212	      4.69630119	     -6.22422380	     -1.01170912	     -8.48362575	     -2.71589164	      1.63402869
      0.93366667	      5.81436219	     -0.89929870	      6.63830010	     -0.39887239	      1.05216395	      0.35325431	     -6.27068426	      7.94701336	     -1.07923325	     -7.15456131	      4.51528547	     -9.53378706	      4.16579543	     17.47088054	     -3.53397408	     -1.87122007	    -47.18635004	      4.70232606	     -6.43038183	     -1.08748997	     -8.45682914	     -2.80735022	      1.97278339
      0.93783333	      5.74876040	     -0.84624824	      6.35111710	     -0.39406536	      1.05212936	      0.35371589	     -6.60075716	      7.88313262	     -0.81929420	     -6.96893976	      4.64877016	     -9.43001807	      4.10725641	     17.60085180	     -3.43787612	     -2.13073276	    -45.76823054	      4.68515442	     -6.64884061	     -1.16605747	     -8.40843129	     -2.88671222	      2.29457748
      0.94200000	      5.67228791	     -0.80833790	      6.06692369	     -0.38925086	      1.05203358	      0.35415608	     -6.91419800	      7.83115834	     -0.55724894	     -6.78940146	      4.78215265	     -9.33055859	      4.04713706	     17.72855732	     -3.35445726	     -2.38416617	    -44.31531062	      4.64553616	     -6.88288464	     -1.24897729	     -8.34651504	     -2.95022116	      2.61233361
      0.94616667	      5.60955414	     -0.77097232	      5.78367315	     -0.38444602	      1.05192552	      0.35457747	     -7.24025261	      7.77723343	     -0.29295999	     -6.61151503	      4.91121248	     -9.22785632	      3.97885286	     17.81937804	     -3.27054044	     -2.63242322	    -42.81307483	      4.58440516	     -7.13441294	     -1.34283498	     -8.30114258	     -3.00301366	      2.94220587
      0.95033333	      5.52063779	     -0.74982414	      5.50629458	     -0.37961944	      1.05172418	      0.35497664	     -7.53253627	      7.73575616	     -0.03660770	     -6.44497693	      5.05025194	     -9.13649685	      3.90808721	     17.92745252	     -3.19998191	     -2.87732093	    -41.28503816	      4.50725736	     -7.39453048	     -1.44035445	     -8.21938917	     -3.03927171	      3.24828365
      0.95450000	      5.44269456	     -0.73063582	      5.22145897	     -0.37479806	      1.05150632	      0.35538759	     -7.82630190	      7.69453892	      0.22487032	     -6.29999092	      5.19798124	     -9.04926710	      3.85120508	     18.00005159	     -3.13783867	     -3.13670601	    -39.71061967	      4.42263991	     -7.63069677	     -1.52288069	     -8.15099171	     -3.08710355	      3.50479255
